<?xml version="1.0" standalone="no"?>
<!DOCTYPE svg PUBLIC "-//W3C//DTD SVG 20010904//EN"
 "http://www.w3.org/TR/2001/REC-SVG-20010904/DTD/svg10.dtd">
<svg version="1.0" xmlns="http://www.w3.org/2000/svg"
 width="192.000000pt" height="192.000000pt" viewBox="0 0 192.000000 192.000000"
 preserveAspectRatio="xMidYMid meet">

<g transform="translate(0.000000,192.000000) scale(0.100000,-0.100000)"
fill="#000000" stroke="none">
<path d="M127 1905 c-50 -17 -85 -50 -108 -100 -18 -38 -19 -83 -19 -845 0
-762 1 -807 19 -845 22 -48 54 -79 103 -100 33 -13 138 -15 840 -15 759 0 805
1 843 19 48 22 79 54 100 103 13 33 15 138 15 838 0 700 -2 805 -15 838 -21
49 -52 81 -100 103 -38 18 -83 19 -840 18 -652 0 -807 -2 -838 -14z m233 -682
l0 -128 24 58 c44 106 118 182 188 193 27 5 40 1 64 -19 28 -24 29 -29 33
-124 l3 -98 20 50 c29 74 90 149 141 174 56 27 79 27 114 -3 l28 -24 3 -327 3
-326 25 -11 c20 -10 29 -8 54 10 45 34 51 6 7 -35 -29 -26 -45 -33 -78 -33
-22 0 -49 5 -59 10 -42 22 -45 43 -50 359 -5 275 -7 305 -22 315 -40 25 -117
-60 -159 -176 -20 -56 -23 -86 -27 -275 l-4 -212 -46 -15 c-25 -9 -47 -16 -49
-16 -2 0 -3 149 -3 331 0 331 -4 369 -35 369 -27 0 -91 -68 -119 -125 -43 -89
-56 -170 -56 -367 l0 -176 -47 -16 c-26 -9 -48 -16 -50 -16 -2 0 -3 167 -3
370 l0 371 43 19 c23 10 45 19 50 19 4 1 7 -56 7 -126z m1215 113 c40 -17 55
-42 55 -94 0 -32 -8 -48 -42 -87 -24 -27 -64 -58 -93 -71 -81 -38 -132 -28
-59 11 113 61 117 195 5 195 -59 0 -102 -29 -133 -90 -28 -53 -28 -55 -28
-260 0 -181 -2 -210 -19 -242 l-18 -37 30 16 c35 18 69 20 192 9 95 -8 91 -9
167 46 31 22 28 3 -9 -80 l-37 -82 -41 6 c-22 4 -67 13 -100 20 -84 19 -218
18 -256 -2 -17 -8 -37 -13 -45 -10 -12 5 -11 11 8 37 22 29 23 41 29 257 6
246 9 262 70 347 71 98 226 152 324 111z"/>
</g>
</svg>
